[Header]
FileType HTR
DataType HTRS
FileVersion 1
NumSegments 22
NumFrames 8
DataFrameRate 24
EulerRotationOrder ZYX
CalibrationUnits mm
RotationUnits Degrees
GlobalAxisofGravity Y
BoneLengthAxis Y
ScaleFactor 1.0
[SegmentNames&Hierarchy]
reference	GLOBAL
Hips	reference
Spine	Hips
Spine1	Spine
Neck	Spine1
Head	Neck
LeftShoulder	Spine1
LeftArm	LeftShoulder
LeftForeArm	LeftArm
LeftHand	LeftForeArm
RightShoulder	Spine1
RightArm	RightShoulder
RightForeArm	RightArm
RightHand	RightForeArm
LeftUpLeg	Hips
LeftLeg	LeftUpLeg
LeftFoot	LeftLeg
LeftToeBase	LeftFoot
RightUpLeg	Hips
RightLeg	RightUpLeg
RightFoot	RightLeg
RightToeBase	RightFoot
[BasePosition]
reference	0	0	0	0	0	0	1
Hips	0	0	0	0	0	0	1
Spine	0	0	0	0	-0	90	1
Spine1	0	0	0	0	0	0	1
Neck	0	0	0	-7.352430803	-7.352430803	90	1
Head	0	0	0	0	-0	90	1
LeftShoulder	0	0	0	0	0	0	1
LeftArm	0	0	0	0	0	0	1
LeftForeArm	0	0	0	0	0	0	1
LeftHand	0	0	0	0	0	0	1
RightShoulder	0	0	0	0	-0	180	1
RightArm	0	0	0	0	-0	180	1
RightForeArm	0	0	0	0	-0	180	1
RightHand	0	0	0	0	-0	180	1
LeftUpLeg	0	0	0	0	-0	-90	1
LeftLeg	0	0	0	0	-0	-90	1
LeftFoot	0	0	0	66.57150701	-66.57150701	-90	1
LeftToeBase	0	0	0	0	-90	0	1
RightUpLeg	0	0	0	0	-0	-90	1
RightLeg	0	0	0	0	-0	-90	1
RightFoot	0	0	0	66.57150701	-66.57150701	-90	1
RightToeBase	0	0	0	0	-90	0	1
[reference]
19	0	0	0	0	-0	0	1.0
20	0	0	0	0	-0	0	1.0
21	0	0	0	0	-0	0	1.0
22	0	0	0	0	-0	0	1.0
23	0	0	0	0	-0	0	1.0
24	0	0	0	0	-0	0	1.0
25	0	0	0	0	-0	0	1.0
26	0	0	0	0	-0	0	1.0
[Hips]
19	2.061269999	8.694310188	0.9854681492	2.883209229	-93.34409332	2.439651489	1.0
20	2.061269999	8.694310188	0.9900472164	1.784437537	-93.50470734	3.696122169	1.0
21	2.061269999	8.694310188	0.9946117401	-0.7832047939	-94.15343475	6.39689827	1.0
22	2.071738482	8.674264908	0.9991657734	0.202137962	-94.98278809	5.596810341	1.0
23	2.107217073	8.640722275	1.003713369	2.444248915	-95.54400635	3.907414913	1.0
24	2.145007133	8.60556221	1.008258581	4.796318531	-96.04045105	2.70925355	1.0
25	2.20718503	8.527360916	1.012805581	6.157989502	-96.42042542	3.147842407	1.0
26	2.305050611	8.348443985	1.017358422	4.822662354	-97.00205231	6.50584507	1.0
[Spine]
19	0	0.7478299737	0	-11.01740837	-1.530531168	-88.62748718	1.0
20	0	0.7478299737	0	-10.69291782	-1.339097261	-88.50367737	1.0
21	0	0.7478299737	0	-10.00427818	-0.9235320091	-88.36888885	1.0
22	0	0.7478299737	0	-9.146535873	-0.4763045311	-88.51330566	1.0
23	0	0.7478299737	0	-8.361079216	-0.2349261492	-88.76475525	1.0
24	0	0.7478299737	0	-7.210858345	-0.0557227619	-88.99845123	1.0
25	0	0.7478299737	0	-5.203566074	0.09403883666	-89.07794952	1.0
26	0	0.7478299737	0	-2.627297401	0.5916857719	-89.02125549	1.0
[Spine1]
19	0	2.049309969	0	7.701779842	-0.4336248338	-1.82990551	1.0
20	0	2.049309969	0	7.496414185	-0.3715899885	-1.869369388	1.0
21	0	2.049309969	0	7.272128582	-0.2398731858	-1.810039878	1.0
22	0	2.049309969	0	6.966888428	-0.08567363024	-1.788103819	1.0
23	0	2.049309969	0	6.530551434	-0.001658996451	-1.855883718	1.0
24	0	2.049309969	0	5.304221153	0.03813627735	-1.592326403	1.0
25	0	2.049309969	0	2.385072947	0.05247050524	-1.592608571	1.0
26	0	2.049309969	0	-1.349055886	0.1848199517	-1.328712106	1.0
[Neck]
19	0	2.231709957	0	-1.138630629	8.189740181	-85.85832977	1.0
20	0	2.231709957	0	-1.674812675	8.30478096	-85.79800415	1.0
21	0	2.231709957	0	-2.091453552	8.321971893	-85.74185181	1.0
22	0	2.231709957	0	-2.690235615	8.438165665	-85.60790253	1.0
23	0	2.231709957	0	-3.404325008	8.668228149	-85.58084106	1.0
24	0	2.231709957	0	-4.234063148	8.786522865	-85.77532196	1.0
25	0	2.231709957	0	-5.376752853	8.944769859	-85.88998413	1.0
26	0	2.231709957	0	-7.35816431	9.030979156	-85.62908936	1.0
[Head]
19	0	1.413589954	0.1823999882	-10.10327244	1.18275106	-92.73286438	1.0
20	0	1.413589954	0.1823999882	-10.09033871	1.294339895	-92.99767303	1.0
21	0	1.413589954	0.1823999882	-10.59287739	1.284997344	-92.99573517	1.0
22	0	1.413589954	0.1823999882	-11.10435486	1.371213555	-92.98147583	1.0
23	0	1.413589954	0.1823999882	-11.36434555	1.571524262	-92.98629761	1.0
24	0	1.413589954	0.1823999882	-11.54765797	1.641448975	-92.70272064	1.0
25	0	1.413589954	0.1823999882	-11.29943943	1.767831922	-92.74208069	1.0
26	0	1.413589954	0.1823999882	-10.48495483	1.832804441	-93.33890533	1.0
[LeftShoulder]
19	0.3649300039	1.825889945	-0.04271000251	-11.5778389	-9.157884598	3.492156744	1.0
20	0.3649300039	1.825889945	-0.04271000251	-11.50941467	-9.207080841	3.612626076	1.0
21	0.3649300039	1.825889945	-0.04271000251	-11.30477428	-9.15999794	3.67427659	1.0
22	0.3649300039	1.825889945	-0.04271000251	-11.1292572	-9.056853294	3.856882095	1.0
23	0.3649300039	1.825889945	-0.04271000251	-11.00672722	-9.048983574	4.051950932	1.0
24	0.3649300039	1.825889945	-0.04271000251	-10.7059679	-9.13663578	3.944242954	1.0
25	0.3649300039	1.825889945	-0.04271000251	-10.48893547	-8.685678482	4.201491356	1.0
26	0.3649300039	1.825889945	-0.04271000251	-10.07080841	-8.138655663	4.443131447	1.0
[LeftArm]
19	1.24003005	0	0	38.42350006	7.219593048	-81.16545105	1.0
20	1.24003005	0	0	37.27562714	7.651613712	-81.20407104	1.0
21	1.24003005	0	0	35.29159546	8.203298569	-80.91399384	1.0
22	1.24003005	0	0	32.92212677	8.766831398	-80.63514709	1.0
23	1.24003005	0	0	31.10173225	9.157851219	-80.28044128	1.0
24	1.24003005	0	0	31.11159134	9.199158669	-79.7910614	1.0
25	1.24003005	0	0	29.95242691	9.20286274	-79.04790497	1.0
26	1.24003005	0	0	28.66296577	8.70238018	-78.14044189	1.0
[LeftForeArm]
19	2.847419977	0	0	-11.88292503	-13.24633598	-3.61489749	1.0
20	2.847419977	0	0	-12.31027889	-14.79520512	-2.783345222	1.0
21	2.847419977	0	0	-12.72970295	-17.94257164	-1.61048317	1.0
22	2.847419977	0	0	-12.83848286	-21.96111107	-0.3287827075	1.0
23	2.847419977	0	0	-12.76884842	-26.4374733	1.290825963	1.0
24	2.847419977	0	0	-13.90021515	-30.96148109	4.075867653	1.0
25	2.847419977	0	0	-13.74077797	-36.11425018	4.948657513	1.0
26	2.847419977	0	0	-12.7621727	-41.570961	5.238455772	1.0
[LeftHand]
19	2.258270025	0	0	-12.16430664	-4.938164711	-3.225461006	1.0
20	2.258270025	0	0	-12.521698	-5.897734165	-2.923065186	1.0
21	2.258270025	0	0	-12.83275509	-7.281928062	-2.390067339	1.0
22	2.258270025	0	0	-12.79655743	-8.839364052	-1.372245312	1.0
23	2.258270025	0	0	-12.45828819	-9.90650177	-0.09875874966	1.0
24	2.258270025	0	0	-12.85590076	-10.4707489	0.925722301	1.0
25	2.258270025	0	0	-12.31534004	-11.34008408	1.896624565	1.0
26	2.258270025	0	0	-11.00988674	-12.3602829	2.185261965	1.0
[RightShoulder]
19	-0.3646599948	1.825889945	-0.04271000251	-8.870096207	7.394340515	179.2002258	1.0
20	-0.3646599948	1.825889945	-0.04271000251	-8.797420502	7.474640846	179.1485901	1.0
21	-0.3646599948	1.825889945	-0.04271000251	-8.685359955	7.617173672	179.1412048	1.0
22	-0.3646599948	1.825889945	-0.04271000251	-8.589258194	7.630598068	179.1279907	1.0
23	-0.3646599948	1.825889945	-0.04271000251	-8.470154762	7.776539803	179.0702057	1.0
24	-0.3646599948	1.825889945	-0.04271000251	-8.317708015	7.826499939	178.7756195	1.0
25	-0.3646599948	1.825889945	-0.04271000251	-7.973052979	7.695418358	178.5467224	1.0
26	-0.3646599948	1.825889945	-0.04271000251	-8.029052734	7.614182472	178.0944977	1.0
[RightArm]
19	-1.24003005	0	0	47.15068817	-5.034565926	-97.87638855	1.0
20	-1.24003005	0	0	46.7462616	-5.362044334	-97.81555176	1.0
21	-1.24003005	0	0	45.95772171	-5.579584122	-98.05498505	1.0
22	-1.24003005	0	0	45.82892609	-5.603827953	-98.30844116	1.0
23	-1.24003005	0	0	45.41728973	-5.550248623	-98.54190826	1.0
24	-1.24003005	0	0	45.26268768	-5.353028297	-98.5953598	1.0
25	-1.24003005	0	0	45.22050476	-5.189705849	-98.88289642	1.0
26	-1.24003005	0	0	44.71834183	-5.557356834	-99.30334473	1.0
[RightForeArm]
19	-2.847419977	0	0	-1.387900829	14.73622322	176.8337402	1.0
20	-2.847419977	0	0	-1.743002772	15.83962154	175.9599152	1.0
21	-2.847419977	0	0	-2.998330355	18.07363319	174.7445831	1.0
22	-2.847419977	0	0	-3.317541122	20.76857758	173.3676453	1.0
23	-2.847419977	0	0	-3.544211626	23.83294106	171.6913452	1.0
24	-2.847419977	0	0	-4.314455509	27.18956757	169.7175903	1.0
25	-2.847419977	0	0	-4.882717609	31.19864082	167.7347107	1.0
26	-2.847419977	0	0	-5.2846241	35.82748032	165.5371704	1.0
[RightHand]
19	-2.258270025	0	0	-1.200939178	7.209838867	176.4702148	1.0
20	-2.258270025	0	0	-1.425926805	7.57038641	176.3068848	1.0
21	-2.258270025	0	0	-2.456787348	8.222132683	175.9004517	1.0
22	-2.258270025	0	0	-2.480424404	8.992458344	175.1747131	1.0
23	-2.258270025	0	0	-2.272383928	9.824533463	174.3689117	1.0
24	-2.258270025	0	0	-2.42104435	10.12883854	173.2483063	1.0
25	-2.258270025	0	0	-2.134935141	10.51548862	172.5284729	1.0
26	-2.258270025	0	0	-1.294275999	11.10624218	172.7260132	1.0
[LeftUpLeg]
19	0.9119900465	0	0	-1.894071221	-3.53472805	90.24040985	1.0
20	0.9119900465	0	0	-2.528680325	-3.565898418	90.27366638	1.0
21	0.9119900465	0	0	-3.06137538	-3.326724291	90.45397949	1.0
22	0.9119900465	0	0	-3.96850419	-2.189606905	90.3866272	1.0
23	0.9119900465	0	0	-5.911533356	-1.184425712	90.13728333	1.0
24	0.9119900465	0	0	-9.987969398	-1.382294536	90.17891693	1.0
25	0.9119900465	0	0	-16.74626541	-3.091719151	91.74868011	1.0
26	0.9119900465	0	0	-24.84375954	-2.117711782	93.95935059	1.0
[LeftLeg]
19	0	-4.371409893	0	7.859163761	-6.010653019	86.38923645	1.0
20	0	-4.371409893	0	8.688592911	-5.567214966	86.16137695	1.0
21	0	-4.371409893	0	9.666008949	-3.819924116	86.05367279	1.0
22	0	-4.371409893	0	11.25908375	-3.099685669	85.91854858	1.0
23	0	-4.371409893	0	14.14431	-2.213205576	86.18546295	1.0
24	0	-4.371409893	0	19.77137756	-0.3305824399	86.0718689	1.0
25	0	-4.371409893	0	28.97448921	1.225695729	83.2946167	1.0
26	0	-4.371409893	0	40.20916748	2.617976189	79.25873566	1.0
[LeftFoot]
19	0	-3.918009996	0	-90.45805359	108.4057083	-39.46116638	1.0
20	0	-3.918009996	0	-86.79070282	108.9858246	-34.72803497	1.0
21	0	-3.918009996	0	-85.03514862	110.0510788	-31.96400452	1.0
22	0	-3.918009996	0	-85.01895905	110.8381348	-30.92548561	1.0
23	0	-3.918009996	0	-86.68188477	110.7398605	-31.55303192	1.0
24	0	-3.918009996	0	-90.38231659	110.1100769	-33.8927536	1.0
25	0	-3.918009996	0	-88.92412567	110.1512985	-29.53186035	1.0
26	0	-3.918009996	0	-87.72149658	109.6622772	-25.07205582	1.0
[LeftToeBase]
19	0	-0.5927900076	1.367989898	0	0	0	1.0
20	0	-0.5927900076	1.367989898	0	0	0	1.0
21	0	-0.5927900076	1.367989898	0	0	0	1.0
22	0	-0.5927900076	1.367989898	0	0	0	1.0
23	0	-0.5927900076	1.367989898	0	0	0	1.0
24	0	-0.5927900076	1.367989898	0	0	0	1.0
25	0	-0.5927900076	1.367989898	0	0	0	1.0
26	0	-0.5927900076	1.367989898	0	0	0	1.0
[RightUpLeg]
19	-0.9119900465	0	0	0.6930758357	-6.616403103	92.64498901	1.0
20	-0.9119900465	0	0	-0.142568171	-6.832627296	92.8134613	1.0
21	-0.9119900465	0	0	-1.400962114	-7.181937218	93.2592926	1.0
22	-0.9119900465	0	0	-3.173576593	-7.941163063	93.67073059	1.0
23	-0.9119900465	0	0	-5.852342129	-9.289611816	94.27230835	1.0
24	-0.9119900465	0	0	-10.19456768	-10.4883852	95.55331421	1.0
25	-0.9119900465	0	0	-16.75732422	-12.02137756	97.49678802	1.0
26	-0.9119900465	0	0	-25.29012299	-12.540555	100.5248566	1.0
[RightLeg]
19	0	-4.371409893	0	4.13025856	0.4256594479	91.2755127	1.0
20	0	-4.371409893	0	5.263940811	0.5002302527	91.00014496	1.0
21	0	-4.371409893	0	7.482305527	0.5682653189	90.34629059	1.0
22	0	-4.371409893	0	10.38069153	1.597548723	89.43389893	1.0
23	0	-4.371409893	0	14.20048904	2.627862453	88.09814453	1.0
24	0	-4.371409893	0	19.68994904	3.133140326	85.76785278	1.0
25	0	-4.371409893	0	27.85142326	4.761647224	83.95083618	1.0
26	0	-4.371409893	0	38.98356628	6.787887573	81.63000488	1.0
[RightFoot]
19	0	-3.918009996	0	28.70207977	65.31478882	71.11004639	1.0
20	0	-3.918009996	0	29.34940338	64.87333679	72.3931427	1.0
21	0	-3.918009996	0	30.63891411	64.5659256	75.0007019	1.0
22	0	-3.918009996	0	31.727808	63.60864258	77.86547852	1.0
23	0	-3.918009996	0	34.31485748	62.09376526	82.65411377	1.0
24	0	-3.918009996	0	37.8915062	60.9701767	88.78988647	1.0
25	0	-3.918009996	0	38.43041992	60.19504547	92.54547119	1.0
26	0	-3.918009996	0	39.02215576	58.83543396	96.22104645	1.0
[RightToeBase]
19	0	-0.5927900076	1.367989898	0	0	0	1.0
20	0	-0.5927900076	1.367989898	0	0	0	1.0
21	0	-0.5927900076	1.367989898	0	0	0	1.0
22	0	-0.5927900076	1.367989898	0	0	0	1.0
23	0	-0.5927900076	1.367989898	0	0	0	1.0
24	0	-0.5927900076	1.367989898	0	0	0	1.0
25	0	-0.5927900076	1.367989898	0	0	0	1.0
26	0	-0.5927900076	1.367989898	0	0	0	1.0
[EndOfFile]
